<svg width="32" height="32" viewBox="0 0 32 32" fill="none" xmlns="http://www.w3.org/2000/svg">
<g clip-path="url(#clip0_86_1400)">
<path d="M6.72839 0.5C6.81734 0.50001 6.88541 0.504545 6.93542 0.511719C6.96006 0.515253 6.97833 0.519177 6.99109 0.522461C7.00323 0.525589 7.00866 0.528322 7.00867 0.52832L7.0282 0.536133C7.03407 0.540252 7.05264 0.553109 7.08289 0.583008C7.13789 0.637417 7.21037 0.724988 7.30066 0.854492C7.48125 1.11354 7.70237 1.49758 7.96277 2.01855L7.9696 2.0332L7.97742 2.0459C8.14069 2.32758 8.36509 2.73192 8.65222 3.26074L9.45105 4.71094C9.6956 5.14605 9.93225 5.55544 10.162 5.93848L10.1757 5.95996L10.1913 5.98047C10.2298 6.03205 10.3555 6.2122 10.578 6.53418V6.5332C10.7906 6.84119 10.9371 7.08631 11.0272 7.27344C11.1053 7.43534 11.1366 7.5779 11.1366 7.7041C11.1366 7.73882 11.1234 7.82291 11.0409 7.96777C10.9798 8.07493 10.8891 8.20092 10.7635 8.3457L10.6268 8.49609C10.2144 8.92991 9.76612 9.32793 9.28113 9.68945C8.75652 10.0808 8.26962 10.4971 7.82117 10.9375C7.58901 11.1656 7.39702 11.3903 7.26062 11.6104C7.12664 11.8266 7.02333 12.0749 7.02332 12.3398C7.02332 12.5604 7.08267 12.794 7.16785 13.0244C7.24537 13.2341 7.31745 13.4095 7.38269 13.54C7.44714 13.6693 7.56428 13.8689 7.72253 14.125C7.8018 14.2534 7.86269 14.3527 7.90515 14.4229C7.92645 14.458 7.94283 14.4849 7.95398 14.5039C7.96795 14.5277 7.96779 14.5276 7.96277 14.5176L7.97253 14.5371C9.1437 16.6485 10.4894 18.4673 12.0106 19.9893C13.5324 21.5103 15.3508 22.8559 17.4618 24.0273L17.4716 24.0322L17.4803 24.0361C17.4708 24.0313 17.471 24.0318 17.495 24.0459C17.5141 24.0571 17.5408 24.0734 17.576 24.0947C17.6463 24.1373 17.746 24.1979 17.8749 24.2773V24.2764C18.1321 24.4357 18.3291 24.5521 18.4559 24.6162L18.4618 24.6191C18.5901 24.682 18.7632 24.7537 18.9745 24.832H18.9755C19.2051 24.9166 19.4392 24.9766 19.66 24.9766C19.9248 24.9765 20.1724 24.8731 20.3885 24.7393C20.6088 24.6029 20.834 24.4111 21.0624 24.1787C21.5024 23.7303 21.9188 23.244 22.3104 22.7188C22.6719 22.2336 23.069 21.7846 23.5028 21.3721L23.5038 21.373C23.7132 21.1741 23.8885 21.0404 24.0311 20.959C24.176 20.8763 24.2601 20.8623 24.2948 20.8623C24.3894 20.8623 24.493 20.8802 24.6073 20.9219L24.7255 20.9717C24.9127 21.0621 25.1576 21.2086 25.4657 21.4209C25.7885 21.6443 25.9667 21.7695 26.0175 21.8076L26.038 21.8232L26.0604 21.8369C26.4433 22.0665 26.8527 22.3043 27.2889 22.5488V22.5479C27.723 22.7917 28.2063 23.0589 28.7382 23.3477C29.2673 23.6352 29.6722 23.8593 29.953 24.0225L29.9667 24.0303L29.9803 24.0371C30.5016 24.2975 30.8864 24.5176 31.1454 24.6982C31.2749 24.7886 31.3615 24.862 31.4159 24.917C31.446 24.9475 31.4588 24.966 31.4628 24.9717L31.4706 24.9902C31.4706 24.9902 31.4732 24.9961 31.4764 25.0088C31.4797 25.0216 31.4837 25.0399 31.4872 25.0645C31.4943 25.1143 31.4991 25.1822 31.4989 25.2715V25.2725C31.4989 25.5388 31.4619 25.8826 31.3807 26.3086L31.2841 26.7627C31.1357 27.4085 30.9856 27.8929 30.8368 28.2295L30.8329 28.2383C30.7144 28.5205 30.4646 28.8511 30.035 29.2246C29.6079 29.5958 29.0244 29.9896 28.2782 30.4033C26.917 31.1409 25.5909 31.5 24.2948 31.5C23.9081 31.5 23.5327 31.475 23.1688 31.4258H23.1698C22.8116 31.3762 22.3995 31.2872 21.9305 31.1553C21.4482 31.0193 21.101 30.9125 20.8827 30.835L19.6298 30.3721C19.028 30.1458 18.646 30.0051 18.4979 29.9561C17.0466 29.4366 15.757 28.8239 14.6278 28.1201L14.6259 28.1191C12.7274 26.9475 10.7538 25.3417 8.70593 23.2939C6.65805 21.2459 5.05197 19.2714 3.88074 17.373L3.87976 17.3711L3.61902 16.9385C3.02169 15.9127 2.49478 14.764 2.03992 13.4902H2.03894C1.98698 13.3361 1.84824 12.9576 1.62781 12.3691L1.16492 11.1162C1.08759 10.898 0.981156 10.5506 0.845581 10.0684C0.746581 9.71667 0.671961 9.39656 0.619995 9.10742L0.57605 8.8291C0.526271 8.46599 0.500862 8.09113 0.500854 7.7041C0.500854 6.40753 0.859612 5.08091 1.59753 3.71973C2.01146 2.97337 2.40504 2.39105 2.77625 1.96387C3.14993 1.53389 3.48065 1.28437 3.76257 1.16602L3.77039 1.16211C4.10794 1.01337 4.59279 0.863135 5.23816 0.714844C5.88069 0.566924 6.37319 0.5 6.72839 0.5Z" fill="#78C081" stroke="#577A5B"/>
</g>
<defs>
<clipPath id="clip0_86_1400">
<rect width="32" height="32" fill="white"/>
</clipPath>
</defs>
</svg>
